STARTFONT 2.1
COMMENT
COMMENT Converted from OpenType font "Firecracker-Regular.ttf" by "otf2bdf 3.0".
COMMENT
FONT -FreeType-Firecracker-Medium-R-Normal--22-160-100-100-P-59-ISO10646-1
SIZE 16 100 100
FONTBOUNDINGBOX 15 23 -1 -4
STARTPROPERTIES 19
FOUNDRY "FreeType"
FAMILY_NAME "Firecracker"
WEIGHT_NAME "Medium"
SLANT "R"
SETWIDTH_NAME "Normal"
ADD_STYLE_NAME ""
PIXEL_SIZE 22
POINT_SIZE 160
RESOLUTION_X 100
RESOLUTION_Y 100
SPACING "P"
AVERAGE_WIDTH 59
CHARSET_REGISTRY "ISO10646"
CHARSET_ENCODING "1"
FONT_ASCENT 16
FONT_DESCENT 5
COPYRIGHT "Firecracker © Igor Ovsyannykov 2023  All Rights Reserved"
_OTF_FONTFILE "Firecracker-Regular.ttf"
_OTF_PSNAME "Firecracker-Regular"
ENDPROPERTIES
CHARS 234
STARTCHAR 0000
ENCODING 0
SWIDTH 0 0
DWIDTH 0 0
BBX 0 0 0 0
BITMAP
ENDCHAR
STARTCHAR 000D
ENCODING 13
SWIDTH 270 0
DWIDTH 6 0
BBX 0 0 0 0
BITMAP
ENDCHAR
STARTCHAR 0020
ENCODING 32
SWIDTH 180 0
DWIDTH 4 0
BBX 0 0 0 0
BITMAP
ENDCHAR
STARTCHAR 0021
ENCODING 33
SWIDTH 135 0
DWIDTH 3 0
BBX 2 15 0 0
BITMAP
40
40
40
40
40
40
40
40
40
40
40
40
00
40
C0
ENDCHAR
STARTCHAR 0022
ENCODING 34
SWIDTH 225 0
DWIDTH 5 0
BBX 4 4 0 11
BITMAP
D0
50
50
50
ENDCHAR
STARTCHAR 0023
ENCODING 35
SWIDTH 495 0
DWIDTH 11 0
BBX 10 15 0 0
BITMAP
1980
1980
1900
1900
1100
7FC0
7FC0
1300
FF80
FF80
3300
3300
3200
3200
2200
ENDCHAR
STARTCHAR 0024
ENCODING 36
SWIDTH 225 0
DWIDTH 5 0
BBX 5 18 0 -1
BITMAP
20
20
70
70
C0
C0
C0
C0
60
60
30
10
10
18
30
F0
E0
20
ENDCHAR
STARTCHAR 0025
ENCODING 37
SWIDTH 450 0
DWIDTH 10 0
BBX 10 15 0 0
BITMAP
6200
5200
5600
D600
D400
D580
5780
5FC0
6FC0
0BC0
0BC0
0BC0
1BC0
1B80
1180
ENDCHAR
STARTCHAR 0026
ENCODING 38
SWIDTH 360 0
DWIDTH 8 0
BBX 8 15 0 0
BITMAP
78
7C
CC
C0
C0
78
78
43
C7
C6
C4
C4
C4
7C
38
ENDCHAR
STARTCHAR 0027
ENCODING 39
SWIDTH 90 0
DWIDTH 2 0
BBX 2 4 0 11
BITMAP
C0
40
40
40
ENDCHAR
STARTCHAR 0028
ENCODING 40
SWIDTH 180 0
DWIDTH 4 0
BBX 3 15 0 0
BITMAP
20
60
60
40
C0
C0
C0
C0
C0
C0
C0
40
60
60
20
ENDCHAR
STARTCHAR 0029
ENCODING 41
SWIDTH 180 0
DWIDTH 4 0
BBX 4 15 0 0
BITMAP
C0
C0
60
60
20
20
20
30
20
20
20
60
60
C0
C0
ENDCHAR
STARTCHAR 002A
ENCODING 42
SWIDTH 360 0
DWIDTH 8 0
BBX 6 5 1 10
BITMAP
58
78
FC
78
58
ENDCHAR
STARTCHAR 002B
ENCODING 43
SWIDTH 270 0
DWIDTH 6 0
BBX 6 5 0 5
BITMAP
30
FC
FC
30
30
ENDCHAR
STARTCHAR 002C
ENCODING 44
SWIDTH 90 0
DWIDTH 2 0
BBX 2 4 0 -2
BITMAP
C0
C0
40
80
ENDCHAR
STARTCHAR 002D
ENCODING 45
SWIDTH 180 0
DWIDTH 4 0
BBX 4 2 0 7
BITMAP
F0
F0
ENDCHAR
STARTCHAR 002E
ENCODING 46
SWIDTH 135 0
DWIDTH 3 0
BBX 2 2 0 0
BITMAP
40
C0
ENDCHAR
STARTCHAR 002F
ENCODING 47
SWIDTH 225 0
DWIDTH 5 0
BBX 5 15 0 0
BITMAP
18
18
10
10
30
30
30
20
20
60
60
60
40
40
C0
ENDCHAR
STARTCHAR 0030
ENCODING 48
SWIDTH 270 0
DWIDTH 6 0
BBX 6 15 0 0
BITMAP
30
78
48
C8
CC
CC
CC
CC
CC
CC
CC
CC
48
78
30
ENDCHAR
STARTCHAR 0031
ENCODING 49
SWIDTH 180 0
DWIDTH 4 0
BBX 3 15 0 0
BITMAP
60
E0
E0
60
60
60
60
60
60
60
60
60
60
60
60
ENDCHAR
STARTCHAR 0032
ENCODING 50
SWIDTH 270 0
DWIDTH 6 0
BBX 6 15 0 0
BITMAP
38
7C
4C
CC
0C
08
08
18
10
30
20
60
40
FC
FC
ENDCHAR
STARTCHAR 0033
ENCODING 51
SWIDTH 270 0
DWIDTH 6 0
BBX 6 15 0 0
BITMAP
38
78
4C
CC
0C
0C
38
38
0C
CC
CC
CC
4C
7C
38
ENDCHAR
STARTCHAR 0034
ENCODING 52
SWIDTH 315 0
DWIDTH 7 0
BBX 6 15 1 0
BITMAP
18
38
38
38
38
78
78
58
D8
D8
98
FC
FC
18
18
ENDCHAR
STARTCHAR 0035
ENCODING 53
SWIDTH 315 0
DWIDTH 7 0
BBX 6 15 0 0
BITMAP
7C
7C
40
40
58
7C
6C
4C
0C
CC
CC
4C
6C
78
38
ENDCHAR
STARTCHAR 0036
ENCODING 54
SWIDTH 270 0
DWIDTH 6 0
BBX 6 15 0 0
BITMAP
30
20
60
60
60
78
CC
CC
CC
CC
CC
CC
CC
78
38
ENDCHAR
STARTCHAR 0037
ENCODING 55
SWIDTH 225 0
DWIDTH 5 0
BBX 5 15 0 0
BITMAP
F8
F8
18
10
10
30
30
30
30
30
20
60
60
60
60
ENDCHAR
STARTCHAR 0038
ENCODING 56
SWIDTH 315 0
DWIDTH 7 0
BBX 6 15 0 0
BITMAP
38
7C
6C
4C
4C
4C
68
38
4C
4C
CC
CC
6C
7C
38
ENDCHAR
STARTCHAR 0039
ENCODING 57
SWIDTH 270 0
DWIDTH 6 0
BBX 6 15 0 0
BITMAP
38
78
CC
CC
CC
CC
CC
CC
7C
0C
18
18
18
10
30
ENDCHAR
STARTCHAR 003A
ENCODING 58
SWIDTH 135 0
DWIDTH 3 0
BBX 2 7 0 4
BITMAP
40
C0
00
00
00
40
C0
ENDCHAR
STARTCHAR 003B
ENCODING 59
SWIDTH 135 0
DWIDTH 3 0
BBX 2 9 1 -2
BITMAP
80
C0
00
00
00
80
C0
80
80
ENDCHAR
STARTCHAR 003C
ENCODING 60
SWIDTH 180 0
DWIDTH 4 0
BBX 4 7 0 4
BITMAP
10
30
60
80
60
30
10
ENDCHAR
STARTCHAR 003D
ENCODING 61
SWIDTH 180 0
DWIDTH 4 0
BBX 4 4 0 6
BITMAP
F0
F0
00
F0
ENDCHAR
STARTCHAR 003E
ENCODING 62
SWIDTH 180 0
DWIDTH 4 0
BBX 4 7 0 4
BITMAP
80
C0
20
10
20
C0
80
ENDCHAR
STARTCHAR 003F
ENCODING 63
SWIDTH 270 0
DWIDTH 6 0
BBX 5 15 1 0
BITMAP
70
F0
98
98
98
10
10
30
20
60
40
40
40
60
60
ENDCHAR
STARTCHAR 0040
ENCODING 64
SWIDTH 495 0
DWIDTH 11 0
BBX 11 14 0 -3
BITMAP
1F00
3180
60C0
4E40
5A40
5260
D260
D240
5B40
4DC0
4000
6000
3180
1F00
ENDCHAR
STARTCHAR 0041
ENCODING 65
SWIDTH 270 0
DWIDTH 6 0
BBX 6 15 0 0
BITMAP
30
38
38
38
28
68
68
68
48
4C
7C
7C
CC
CC
CC
ENDCHAR
STARTCHAR 0042
ENCODING 66
SWIDTH 270 0
DWIDTH 6 0
BBX 5 15 1 0
BITMAP
E0
F0
98
98
90
E0
90
98
98
98
98
98
98
F0
E0
ENDCHAR
STARTCHAR 0043
ENCODING 67
SWIDTH 270 0
DWIDTH 6 0
BBX 6 15 0 0
BITMAP
30
78
4C
CC
CC
CC
C0
C0
C0
CC
CC
CC
4C
78
38
ENDCHAR
STARTCHAR 0044
ENCODING 68
SWIDTH 270 0
DWIDTH 6 0
BBX 5 15 1 0
BITMAP
E0
F0
98
98
98
88
88
88
88
88
98
98
B0
F0
E0
ENDCHAR
STARTCHAR 0045
ENCODING 69
SWIDTH 225 0
DWIDTH 5 0
BBX 5 15 0 0
BITMAP
F8
F8
C0
C0
C0
C0
C0
F8
F8
C0
C0
C0
C0
F8
F8
ENDCHAR
STARTCHAR 0046
ENCODING 70
SWIDTH 225 0
DWIDTH 5 0
BBX 5 15 0 0
BITMAP
F8
F8
C0
C0
C0
F8
F8
C0
C0
C0
C0
C0
C0
C0
C0
ENDCHAR
STARTCHAR 0047
ENCODING 71
SWIDTH 270 0
DWIDTH 6 0
BBX 6 15 0 0
BITMAP
30
78
4C
CC
CC
CC
C0
DC
DC
CC
CC
CC
4C
4C
3C
ENDCHAR
STARTCHAR 0048
ENCODING 72
SWIDTH 270 0
DWIDTH 6 0
BBX 6 15 0 0
BITMAP
CC
CC
CC
CC
CC
CC
CC
FC
FC
CC
CC
CC
CC
CC
CC
ENDCHAR
STARTCHAR 0049
ENCODING 73
SWIDTH 135 0
DWIDTH 3 0
BBX 2 15 0 0
BITMAP
C0
C0
C0
C0
C0
C0
C0
C0
C0
C0
C0
C0
C0
C0
C0
ENDCHAR
STARTCHAR 004A
ENCODING 74
SWIDTH 180 0
DWIDTH 4 0
BBX 3 15 0 0
BITMAP
60
60
60
60
60
60
60
60
60
60
60
60
60
E0
C0
ENDCHAR
STARTCHAR 004B
ENCODING 75
SWIDTH 270 0
DWIDTH 6 0
BBX 6 15 0 0
BITMAP
CC
C8
D8
D8
D0
D0
F0
F0
F0
D0
D8
D8
D8
C8
CC
ENDCHAR
STARTCHAR 004C
ENCODING 76
SWIDTH 225 0
DWIDTH 5 0
BBX 4 15 0 0
BITMAP
C0
C0
C0
C0
C0
C0
C0
C0
C0
C0
C0
C0
C0
F0
F0
ENDCHAR
STARTCHAR 004D
ENCODING 77
SWIDTH 405 0
DWIDTH 9 0
BBX 9 15 0 0
BITMAP
4180
6180
6380
E380
E380
E380
F380
F780
D780
D580
DD80
DD80
CD80
C980
C180
ENDCHAR
STARTCHAR 004E
ENCODING 78
SWIDTH 315 0
DWIDTH 7 0
BBX 6 15 0 0
BITMAP
C4
E4
E4
E4
E4
F4
F4
D4
D4
DC
DC
CC
CC
CC
C4
ENDCHAR
STARTCHAR 004F
ENCODING 79
SWIDTH 270 0
DWIDTH 6 0
BBX 6 15 0 0
BITMAP
30
78
48
CC
CC
CC
CC
CC
CC
CC
CC
CC
48
78
30
ENDCHAR
STARTCHAR 0050
ENCODING 80
SWIDTH 270 0
DWIDTH 6 0
BBX 6 15 0 0
BITMAP
F0
F8
D8
C8
CC
CC
CC
C8
C8
D8
D0
E0
C0
C0
C0
ENDCHAR
STARTCHAR 0051
ENCODING 81
SWIDTH 270 0
DWIDTH 6 0
BBX 6 16 0 -1
BITMAP
30
78
48
CC
CC
CC
CC
CC
CC
CC
CC
DC
78
78
38
0C
ENDCHAR
STARTCHAR 0052
ENCODING 82
SWIDTH 270 0
DWIDTH 6 0
BBX 6 15 0 0
BITMAP
F0
F8
D8
CC
CC
CC
C8
C8
D8
D0
F8
D8
D8
C8
CC
ENDCHAR
STARTCHAR 0053
ENCODING 83
SWIDTH 225 0
DWIDTH 5 0
BBX 5 16 0 -1
BITMAP
30
70
C0
C0
C0
C0
40
60
60
30
10
10
18
30
F0
E0
ENDCHAR
STARTCHAR 0054
ENCODING 84
SWIDTH 270 0
DWIDTH 6 0
BBX 6 15 0 0
BITMAP
FC
FC
30
30
30
30
30
30
30
30
30
30
30
30
30
ENDCHAR
STARTCHAR 0055
ENCODING 85
SWIDTH 315 0
DWIDTH 7 0
BBX 6 15 0 0
BITMAP
CC
CC
CC
CC
CC
CC
CC
CC
CC
CC
CC
4C
6C
7C
38
ENDCHAR
STARTCHAR 0056
ENCODING 86
SWIDTH 315 0
DWIDTH 7 0
BBX 6 15 0 0
BITMAP
C4
CC
CC
4C
4C
6C
68
68
68
68
38
38
38
30
30
ENDCHAR
STARTCHAR 0057
ENCODING 87
SWIDTH 450 0
DWIDTH 10 0
BBX 10 15 0 0
BITMAP
C0C0
CC80
CC80
CC80
CC80
DC80
5F80
5780
5780
5380
7380
7380
7380
6380
6180
ENDCHAR
STARTCHAR 0058
ENCODING 88
SWIDTH 270 0
DWIDTH 6 0
BBX 6 15 0 0
BITMAP
CC
4C
48
68
78
78
78
38
78
78
78
68
4C
CC
CC
ENDCHAR
STARTCHAR 0059
ENCODING 89
SWIDTH 315 0
DWIDTH 7 0
BBX 6 15 0 0
BITMAP
C4
CC
4C
4C
6C
68
68
38
38
30
30
30
30
30
30
ENDCHAR
STARTCHAR 005A
ENCODING 90
SWIDTH 270 0
DWIDTH 6 0
BBX 5 15 1 0
BITMAP
F8
F0
30
30
30
20
60
60
60
40
40
C0
C0
F0
F0
ENDCHAR
STARTCHAR 005B
ENCODING 91
SWIDTH 180 0
DWIDTH 4 0
BBX 4 15 0 0
BITMAP
F0
F0
C0
C0
C0
C0
C0
C0
C0
C0
C0
C0
C0
F0
F0
ENDCHAR
STARTCHAR 005C
ENCODING 92
SWIDTH 225 0
DWIDTH 5 0
BBX 5 15 0 0
BITMAP
C0
40
40
60
60
60
20
20
30
30
30
10
10
18
18
ENDCHAR
STARTCHAR 005D
ENCODING 93
SWIDTH 180 0
DWIDTH 4 0
BBX 4 15 0 0
BITMAP
F0
F0
30
30
30
30
30
30
30
30
30
30
30
F0
F0
ENDCHAR
STARTCHAR 005E
ENCODING 94
SWIDTH 270 0
DWIDTH 6 0
BBX 6 3 0 12
BITMAP
30
70
CC
ENDCHAR
STARTCHAR 005F
ENCODING 95
SWIDTH 225 0
DWIDTH 5 0
BBX 5 2 0 -2
BITMAP
F8
F8
ENDCHAR
STARTCHAR 0060
ENCODING 96
SWIDTH 135 0
DWIDTH 3 0
BBX 3 3 0 11
BITMAP
C0
60
20
ENDCHAR
STARTCHAR 0061
ENCODING 97
SWIDTH 315 0
DWIDTH 7 0
BBX 6 10 0 0
BITMAP
38
6C
4C
1C
3C
4C
CC
CC
DC
6C
ENDCHAR
STARTCHAR 0062
ENCODING 98
SWIDTH 315 0
DWIDTH 7 0
BBX 6 15 0 0
BITMAP
C0
C0
C0
C0
C0
D8
EC
E4
E4
C4
C4
C4
E4
EC
D8
ENDCHAR
STARTCHAR 0063
ENCODING 99
SWIDTH 270 0
DWIDTH 6 0
BBX 6 10 0 0
BITMAP
38
78
4C
C0
C0
C0
CC
4C
48
30
ENDCHAR
STARTCHAR 0064
ENCODING 100
SWIDTH 315 0
DWIDTH 7 0
BBX 6 15 0 0
BITMAP
0C
0C
04
04
04
34
6C
4C
CC
CC
CC
CC
CC
74
74
ENDCHAR
STARTCHAR 0065
ENCODING 101
SWIDTH 270 0
DWIDTH 6 0
BBX 6 10 0 0
BITMAP
38
78
4C
FC
C0
C0
CC
48
48
30
ENDCHAR
STARTCHAR 0066
ENCODING 102
SWIDTH 180 0
DWIDTH 4 0
BBX 5 15 0 0
BITMAP
38
60
60
40
40
F0
F0
40
40
40
40
40
40
40
40
ENDCHAR
STARTCHAR 0067
ENCODING 103
SWIDTH 315 0
DWIDTH 7 0
BBX 6 14 0 -4
BITMAP
3C
4C
4C
CC
CC
CC
CC
CC
5C
7C
0C
0C
7C
38
ENDCHAR
STARTCHAR 0068
ENCODING 104
SWIDTH 315 0
DWIDTH 7 0
BBX 6 15 0 0
BITMAP
C0
C0
C0
C0
C0
D8
FC
EC
CC
CC
CC
CC
CC
CC
CC
ENDCHAR
STARTCHAR 0069
ENCODING 105
SWIDTH 135 0
DWIDTH 3 0
BBX 2 13 0 0
BITMAP
C0
C0
00
C0
C0
C0
C0
C0
C0
C0
C0
C0
C0
ENDCHAR
STARTCHAR 006A
ENCODING 106
SWIDTH 135 0
DWIDTH 3 0
BBX 3 17 -1 -4
BITMAP
60
60
00
60
60
60
60
60
60
60
60
60
60
60
60
E0
C0
ENDCHAR
STARTCHAR 006B
ENCODING 107
SWIDTH 270 0
DWIDTH 6 0
BBX 6 15 0 0
BITMAP
C0
C0
C0
C0
C0
CC
D8
D8
F0
F0
F0
F8
D8
C8
CC
ENDCHAR
STARTCHAR 006C
ENCODING 108
SWIDTH 135 0
DWIDTH 3 0
BBX 2 15 0 0
BITMAP
C0
C0
C0
C0
C0
C0
C0
C0
C0
C0
C0
C0
C0
C0
C0
ENDCHAR
STARTCHAR 006D
ENCODING 109
SWIDTH 495 0
DWIDTH 11 0
BBX 11 10 0 0
BITMAP
DCC0
DDC0
E660
E660
E660
C660
C660
C460
C460
C460
ENDCHAR
STARTCHAR 006E
ENCODING 110
SWIDTH 315 0
DWIDTH 7 0
BBX 6 10 0 0
BITMAP
18
DC
EC
CC
CC
CC
CC
CC
CC
CC
ENDCHAR
STARTCHAR 006F
ENCODING 111
SWIDTH 270 0
DWIDTH 6 0
BBX 6 10 0 0
BITMAP
30
78
48
4C
CC
CC
4C
48
78
30
ENDCHAR
STARTCHAR 0070
ENCODING 112
SWIDTH 315 0
DWIDTH 7 0
BBX 7 14 0 -4
BITMAP
DC
EC
E4
E6
C6
C6
C4
C4
EC
F8
C0
C0
C0
C0
ENDCHAR
STARTCHAR 0071
ENCODING 113
SWIDTH 315 0
DWIDTH 7 0
BBX 6 14 0 -4
BITMAP
3C
4C
4C
CC
CC
CC
CC
CC
5C
7C
0C
0C
0C
0C
ENDCHAR
STARTCHAR 0072
ENCODING 114
SWIDTH 225 0
DWIDTH 5 0
BBX 5 10 0 0
BITMAP
C8
D8
F0
E0
E0
E0
C0
C0
C0
C0
ENDCHAR
STARTCHAR 0073
ENCODING 115
SWIDTH 225 0
DWIDTH 5 0
BBX 4 10 1 0
BITMAP
70
F0
80
80
40
60
30
30
F0
E0
ENDCHAR
STARTCHAR 0074
ENCODING 116
SWIDTH 180 0
DWIDTH 4 0
BBX 4 14 0 -1
BITMAP
40
40
40
F0
F0
40
40
40
40
40
40
60
30
10
ENDCHAR
STARTCHAR 0075
ENCODING 117
SWIDTH 315 0
DWIDTH 7 0
BBX 6 10 0 0
BITMAP
CC
CC
CC
CC
CC
CC
CC
CC
7C
60
ENDCHAR
STARTCHAR 0076
ENCODING 118
SWIDTH 270 0
DWIDTH 6 0
BBX 6 10 0 0
BITMAP
C4
CC
4C
48
68
68
38
38
30
30
ENDCHAR
STARTCHAR 0077
ENCODING 119
SWIDTH 450 0
DWIDTH 10 0
BBX 10 10 0 0
BITMAP
C440
CCC0
4CC0
4EC0
6AC0
7A80
7280
3380
3380
3180
ENDCHAR
STARTCHAR 0078
ENCODING 120
SWIDTH 315 0
DWIDTH 7 0
BBX 7 10 0 0
BITMAP
C6
4C
6C
28
38
30
38
68
4C
C6
ENDCHAR
STARTCHAR 0079
ENCODING 121
SWIDTH 270 0
DWIDTH 6 0
BBX 6 14 0 -4
BITMAP
CC
CC
CC
CC
CC
CC
CC
CC
5C
7C
0C
0C
78
78
ENDCHAR
STARTCHAR 007A
ENCODING 122
SWIDTH 270 0
DWIDTH 6 0
BBX 6 10 0 0
BITMAP
7C
7C
08
18
10
30
20
60
7C
FC
ENDCHAR
STARTCHAR 007B
ENCODING 123
SWIDTH 180 0
DWIDTH 4 0
BBX 4 15 0 0
BITMAP
10
30
60
60
60
60
E0
C0
60
60
60
60
20
30
10
ENDCHAR
STARTCHAR 007C
ENCODING 124
SWIDTH 90 0
DWIDTH 2 0
BBX 2 16 0 0
BITMAP
C0
C0
C0
C0
C0
C0
C0
C0
C0
C0
C0
C0
C0
C0
C0
C0
ENDCHAR
STARTCHAR 007D
ENCODING 125
SWIDTH 180 0
DWIDTH 4 0
BBX 4 15 0 0
BITMAP
C0
C0
60
60
60
60
70
30
60
60
60
60
60
C0
C0
ENDCHAR
STARTCHAR 007E
ENCODING 126
SWIDTH 270 0
DWIDTH 6 0
BBX 6 3 0 6
BITMAP
E4
FC
98
ENDCHAR
STARTCHAR 00A1
ENCODING 161
SWIDTH 135 0
DWIDTH 3 0
BBX 2 16 0 -2
BITMAP
40
C0
00
00
40
40
40
40
40
40
40
40
40
40
40
40
ENDCHAR
STARTCHAR 00A2
ENCODING 162
SWIDTH 270 0
DWIDTH 6 0
BBX 6 14 0 -2
BITMAP
30
30
78
48
CC
C0
C0
C0
CC
CC
48
78
30
30
ENDCHAR
STARTCHAR 00A3
ENCODING 163
SWIDTH 315 0
DWIDTH 7 0
BBX 7 15 0 0
BITMAP
1E
3E
30
30
20
60
60
FC
FC
20
20
20
60
FE
FE
ENDCHAR
STARTCHAR 00A4
ENCODING 164
SWIDTH 360 0
DWIDTH 8 0
BBX 7 8 0 4
BITMAP
7E
FE
66
C2
C2
66
7E
FE
ENDCHAR
STARTCHAR 00A5
ENCODING 165
SWIDTH 315 0
DWIDTH 7 0
BBX 7 15 0 0
BITMAP
C6
44
64
6C
6C
6C
28
28
28
38
7C
10
7C
10
10
ENDCHAR
STARTCHAR 00A6
ENCODING 166
SWIDTH 135 0
DWIDTH 3 0
BBX 1 17 1 -1
BITMAP
80
80
80
80
80
80
80
80
00
80
80
80
80
80
80
80
80
ENDCHAR
STARTCHAR 00A7
ENCODING 167
SWIDTH 315 0
DWIDTH 7 0
BBX 5 20 1 -4
BITMAP
30
70
C0
C0
C0
40
60
70
F0
D0
D8
70
70
20
30
10
18
38
F0
E0
ENDCHAR
STARTCHAR 00A8
ENCODING 168
SWIDTH 270 0
DWIDTH 6 0
BBX 6 2 0 11
BITMAP
78
FC
ENDCHAR
STARTCHAR 00A9
ENCODING 169
SWIDTH 495 0
DWIDTH 11 0
BBX 10 15 0 0
BITMAP
1E00
2100
4C80
5E80
9240
9240
9040
9040
9040
9240
9240
5E80
4C80
2100
1E00
ENDCHAR
STARTCHAR 00AA
ENCODING 170
SWIDTH 180 0
DWIDTH 4 0
BBX 4 7 0 5
BITMAP
70
50
B0
50
90
B0
50
ENDCHAR
STARTCHAR 00AB
ENCODING 171
SWIDTH 315 0
DWIDTH 7 0
BBX 6 5 0 5
BITMAP
24
7C
D8
6C
34
ENDCHAR
STARTCHAR 00AC
ENCODING 172
SWIDTH 270 0
DWIDTH 6 0
BBX 6 3 0 6
BITMAP
FC
FC
0C
ENDCHAR
STARTCHAR 00AE
ENCODING 174
SWIDTH 495 0
DWIDTH 11 0
BBX 11 15 0 0
BITMAP
0E00
3180
2C80
4A40
4A40
4A40
CA60
CA60
CC60
4A40
4A40
4A40
2080
2080
1F00
ENDCHAR
STARTCHAR 00AF
ENCODING 175
SWIDTH 225 0
DWIDTH 5 0
BBX 5 2 0 13
BITMAP
F8
F8
ENDCHAR
STARTCHAR 00B0
ENCODING 176
SWIDTH 180 0
DWIDTH 4 0
BBX 4 3 0 12
BITMAP
60
B0
60
ENDCHAR
STARTCHAR 00B1
ENCODING 177
SWIDTH 270 0
DWIDTH 6 0
BBX 6 8 0 4
BITMAP
30
30
FC
FC
30
30
FC
FC
ENDCHAR
STARTCHAR 00B2
ENCODING 178
SWIDTH 180 0
DWIDTH 4 0
BBX 4 10 0 5
BITMAP
60
50
D0
30
30
20
60
40
C0
F0
ENDCHAR
STARTCHAR 00B3
ENCODING 179
SWIDTH 180 0
DWIDTH 4 0
BBX 4 10 0 5
BITMAP
60
50
D0
10
60
30
D0
D0
D0
60
ENDCHAR
STARTCHAR 00B4
ENCODING 180
SWIDTH 135 0
DWIDTH 3 0
BBX 3 3 0 11
BITMAP
60
40
80
ENDCHAR
STARTCHAR 00B6
ENCODING 182
SWIDTH 495 0
DWIDTH 11 0
BBX 9 18 1 -4
BITMAP
7F80
7F80
FD80
FD80
FD80
FD80
FD80
FD80
FD80
7D80
6D80
0D80
0D80
0D80
0D80
0D80
0D80
0D80
ENDCHAR
STARTCHAR 00B7
ENCODING 183
SWIDTH 135 0
DWIDTH 3 0
BBX 3 2 0 7
BITMAP
E0
E0
ENDCHAR
STARTCHAR 00B8
ENCODING 184
SWIDTH 135 0
DWIDTH 3 0
BBX 3 3 0 -3
BITMAP
60
20
C0
ENDCHAR
STARTCHAR 00B9
ENCODING 185
SWIDTH 135 0
DWIDTH 3 0
BBX 2 10 0 5
BITMAP
40
C0
40
40
40
40
40
40
40
40
ENDCHAR
STARTCHAR 00BA
ENCODING 186
SWIDTH 180 0
DWIDTH 4 0
BBX 4 9 0 6
BITMAP
60
70
F0
F0
F0
F0
F0
70
60
ENDCHAR
STARTCHAR 00BB
ENCODING 187
SWIDTH 315 0
DWIDTH 7 0
BBX 7 5 0 5
BITMAP
48
FC
36
6C
D8
ENDCHAR
STARTCHAR 00BC
ENCODING 188
SWIDTH 405 0
DWIDTH 9 0
BBX 8 15 0 0
BITMAP
44
CC
4C
48
48
4B
5B
5F
57
57
17
3F
3F
23
23
ENDCHAR
STARTCHAR 00BD
ENCODING 189
SWIDTH 405 0
DWIDTH 9 0
BBX 9 15 0 0
BITMAP
4400
CC00
4800
4800
4800
4B00
5D80
5980
5180
5100
1300
3200
3200
2600
2780
ENDCHAR
STARTCHAR 00BE
ENCODING 190
SWIDTH 450 0
DWIDTH 10 0
BBX 10 15 0 0
BITMAP
7200
5200
5200
9600
7600
1580
D580
D580
5F80
7F80
0A80
0A80
0FC0
0880
1880
ENDCHAR
STARTCHAR 00BF
ENCODING 191
SWIDTH 270 0
DWIDTH 6 0
BBX 5 16 1 -2
BITMAP
20
30
00
20
20
20
20
60
40
C0
80
98
98
90
F0
60
ENDCHAR
STARTCHAR 00C0
ENCODING 192
SWIDTH 270 0
DWIDTH 6 0
BBX 6 19 0 0
BITMAP
60
20
10
00
30
38
38
38
28
68
68
68
48
4C
7C
7C
CC
CC
CC
ENDCHAR
STARTCHAR 00C1
ENCODING 193
SWIDTH 270 0
DWIDTH 6 0
BBX 6 19 0 0
BITMAP
18
10
10
00
30
38
38
38
28
68
68
68
48
4C
7C
7C
CC
CC
CC
ENDCHAR
STARTCHAR 00C2
ENCODING 194
SWIDTH 270 0
DWIDTH 6 0
BBX 6 19 0 0
BITMAP
30
30
28
40
30
38
38
38
28
68
68
68
48
4C
7C
7C
CC
CC
CC
ENDCHAR
STARTCHAR 00C3
ENCODING 195
SWIDTH 270 0
DWIDTH 6 0
BBX 6 17 0 0
BITMAP
78
58
30
38
38
38
28
68
68
68
48
4C
7C
7C
CC
CC
CC
ENDCHAR
STARTCHAR 00C4
ENCODING 196
SWIDTH 270 0
DWIDTH 6 0
BBX 6 18 0 0
BITMAP
7C
68
00
30
38
38
38
28
68
68
68
48
4C
7C
7C
CC
CC
CC
ENDCHAR
STARTCHAR 00C5
ENCODING 197
SWIDTH 270 0
DWIDTH 6 0
BBX 6 18 0 0
BITMAP
38
28
30
30
38
38
38
28
68
68
68
48
4C
7C
7C
CC
CC
CC
ENDCHAR
STARTCHAR 00C6
ENCODING 198
SWIDTH 405 0
DWIDTH 9 0
BBX 9 15 0 0
BITMAP
3F80
3F80
2C00
2C00
2C00
6C00
6C00
6F00
6F00
4C00
7C00
7C00
CC00
CF80
CF80
ENDCHAR
STARTCHAR 00C7
ENCODING 199
SWIDTH 270 0
DWIDTH 6 0
BBX 6 18 0 -3
BITMAP
30
78
4C
CC
CC
CC
C0
C0
C0
CC
CC
CC
4C
78
30
18
08
30
ENDCHAR
STARTCHAR 00C8
ENCODING 200
SWIDTH 225 0
DWIDTH 5 0
BBX 5 19 0 0
BITMAP
C0
60
20
00
F8
F8
C0
C0
C0
C0
C0
F8
F8
C0
C0
C0
C0
F8
F8
ENDCHAR
STARTCHAR 00C9
ENCODING 201
SWIDTH 225 0
DWIDTH 5 0
BBX 5 19 0 0
BITMAP
18
30
20
00
F8
F8
C0
C0
C0
C0
C0
F8
F8
C0
C0
C0
C0
F8
F8
ENDCHAR
STARTCHAR 00CA
ENCODING 202
SWIDTH 225 0
DWIDTH 5 0
BBX 5 19 0 0
BITMAP
20
50
50
00
F8
F8
C0
C0
C0
C0
C0
F8
F8
C0
C0
C0
C0
F8
F8
ENDCHAR
STARTCHAR 00CB
ENCODING 203
SWIDTH 225 0
DWIDTH 5 0
BBX 5 18 0 0
BITMAP
D8
D8
00
F8
F8
C0
C0
C0
C0
C0
F8
F8
C0
C0
C0
C0
F8
F8
ENDCHAR
STARTCHAR 00CC
ENCODING 204
SWIDTH 135 0
DWIDTH 3 0
BBX 3 19 -1 0
BITMAP
C0
40
20
00
60
60
60
60
60
60
60
60
60
60
60
60
60
60
60
ENDCHAR
STARTCHAR 00CD
ENCODING 205
SWIDTH 135 0
DWIDTH 3 0
BBX 3 19 0 0
BITMAP
60
40
40
00
C0
C0
C0
C0
C0
C0
C0
C0
C0
C0
C0
C0
C0
C0
C0
ENDCHAR
STARTCHAR 00CE
ENCODING 206
SWIDTH 135 0
DWIDTH 3 0
BBX 3 19 0 0
BITMAP
C0
E0
A0
00
C0
C0
C0
C0
C0
C0
C0
C0
C0
C0
C0
C0
C0
C0
C0
ENDCHAR
STARTCHAR 00CF
ENCODING 207
SWIDTH 135 0
DWIDTH 3 0
BBX 5 18 -1 0
BITMAP
F8
D0
00
60
60
60
60
60
60
60
60
60
60
60
60
60
60
60
ENDCHAR
STARTCHAR 00D0
ENCODING 208
SWIDTH 270 0
DWIDTH 6 0
BBX 6 15 0 0
BITMAP
70
58
4C
4C
44
44
F4
F4
44
44
4C
4C
58
78
70
ENDCHAR
STARTCHAR 00D1
ENCODING 209
SWIDTH 315 0
DWIDTH 7 0
BBX 6 17 0 0
BITMAP
38
48
C4
E4
E4
E4
E4
F4
F4
D4
D4
DC
DC
CC
CC
CC
C4
ENDCHAR
STARTCHAR 00D2
ENCODING 210
SWIDTH 270 0
DWIDTH 6 0
BBX 6 19 0 0
BITMAP
60
20
20
00
30
78
48
CC
CC
CC
CC
CC
CC
CC
CC
CC
48
78
30
ENDCHAR
STARTCHAR 00D3
ENCODING 211
SWIDTH 270 0
DWIDTH 6 0
BBX 6 19 0 0
BITMAP
18
10
10
00
30
78
48
CC
CC
CC
CC
CC
CC
CC
CC
CC
48
78
30
ENDCHAR
STARTCHAR 00D4
ENCODING 212
SWIDTH 270 0
DWIDTH 6 0
BBX 6 19 0 0
BITMAP
30
30
78
00
30
78
48
CC
CC
CC
CC
CC
CC
CC
CC
CC
48
78
30
ENDCHAR
STARTCHAR 00D5
ENCODING 213
SWIDTH 270 0
DWIDTH 6 0
BBX 6 17 0 0
BITMAP
78
98
30
78
48
CC
CC
CC
CC
CC
CC
CC
CC
CC
48
78
30
ENDCHAR
STARTCHAR 00D6
ENCODING 214
SWIDTH 270 0
DWIDTH 6 0
BBX 6 18 0 0
BITMAP
7C
E8
00
30
78
48
CC
CC
CC
CC
CC
CC
CC
CC
CC
48
78
30
ENDCHAR
STARTCHAR 00D7
ENCODING 215
SWIDTH 270 0
DWIDTH 6 0
BBX 6 5 0 5
BITMAP
48
FC
38
78
EC
ENDCHAR
STARTCHAR 00D8
ENCODING 216
SWIDTH 270 0
DWIDTH 6 0
BBX 6 17 0 -1
BITMAP
0C
38
78
5C
5C
DC
DC
DC
FC
FC
FC
EC
EC
68
78
70
60
ENDCHAR
STARTCHAR 00D9
ENCODING 217
SWIDTH 315 0
DWIDTH 7 0
BBX 6 19 0 0
BITMAP
60
20
10
00
CC
CC
CC
CC
CC
CC
CC
CC
CC
CC
CC
4C
6C
7C
38
ENDCHAR
STARTCHAR 00DA
ENCODING 218
SWIDTH 315 0
DWIDTH 7 0
BBX 6 19 0 0
BITMAP
18
10
10
00
CC
CC
CC
CC
CC
CC
CC
CC
CC
CC
CC
4C
6C
7C
38
ENDCHAR
STARTCHAR 00DB
ENCODING 219
SWIDTH 315 0
DWIDTH 7 0
BBX 6 19 0 0
BITMAP
30
38
28
00
CC
CC
CC
CC
CC
CC
CC
CC
CC
CC
CC
4C
6C
7C
38
ENDCHAR
STARTCHAR 00DC
ENCODING 220
SWIDTH 315 0
DWIDTH 7 0
BBX 6 18 0 0
BITMAP
7C
68
00
CC
CC
CC
CC
CC
CC
CC
CC
CC
CC
CC
4C
6C
7C
38
ENDCHAR
STARTCHAR 00DD
ENCODING 221
SWIDTH 315 0
DWIDTH 7 0
BBX 7 19 0 0
BITMAP
0C
18
10
00
C6
44
6C
6C
6C
6C
28
28
38
38
38
10
10
10
10
ENDCHAR
STARTCHAR 00DE
ENCODING 222
SWIDTH 315 0
DWIDTH 7 0
BBX 7 13 0 -1
BITMAP
C0
C8
DC
EC
E4
E6
C6
C4
C4
C4
EC
D8
C0
ENDCHAR
STARTCHAR 00DF
ENCODING 223
SWIDTH 315 0
DWIDTH 7 0
BBX 6 15 0 0
BITMAP
38
78
6C
4C
CC
CC
D8
D8
CC
CC
CC
CC
CC
DC
D8
ENDCHAR
STARTCHAR 00E0
ENCODING 224
SWIDTH 315 0
DWIDTH 7 0
BBX 6 14 0 0
BITMAP
60
20
10
00
38
6C
44
1C
34
6C
4C
CC
DC
7C
ENDCHAR
STARTCHAR 00E1
ENCODING 225
SWIDTH 315 0
DWIDTH 7 0
BBX 6 14 0 0
BITMAP
1C
18
10
00
38
6C
44
1C
34
6C
4C
CC
DC
7C
ENDCHAR
STARTCHAR 00E2
ENCODING 226
SWIDTH 315 0
DWIDTH 7 0
BBX 6 14 0 0
BITMAP
10
38
28
00
38
6C
44
1C
34
6C
4C
CC
DC
7C
ENDCHAR
STARTCHAR 00E3
ENCODING 227
SWIDTH 315 0
DWIDTH 7 0
BBX 6 12 0 0
BITMAP
38
38
38
6C
44
1C
34
6C
4C
CC
DC
7C
ENDCHAR
STARTCHAR 00E4
ENCODING 228
SWIDTH 315 0
DWIDTH 7 0
BBX 6 13 0 0
BITMAP
6C
6C
00
38
6C
44
1C
34
6C
4C
CC
DC
7C
ENDCHAR
STARTCHAR 00E5
ENCODING 229
SWIDTH 315 0
DWIDTH 7 0
BBX 6 13 0 0
BITMAP
38
28
38
38
6C
44
1C
34
6C
4C
CC
DC
7C
ENDCHAR
STARTCHAR 00E6
ENCODING 230
SWIDTH 450 0
DWIDTH 10 0
BBX 10 10 0 0
BITMAP
3B80
6EC0
4CC0
1FC0
3C00
4C00
CCC0
CCC0
DE80
7380
ENDCHAR
STARTCHAR 00E7
ENCODING 231
SWIDTH 270 0
DWIDTH 6 0
BBX 6 13 0 -3
BITMAP
38
78
4C
C0
C0
C0
CC
4C
48
38
10
08
30
ENDCHAR
STARTCHAR 00E8
ENCODING 232
SWIDTH 270 0
DWIDTH 6 0
BBX 6 14 0 0
BITMAP
60
20
20
00
38
78
4C
FC
C0
C0
CC
48
48
30
ENDCHAR
STARTCHAR 00E9
ENCODING 233
SWIDTH 270 0
DWIDTH 6 0
BBX 6 14 0 0
BITMAP
18
10
10
20
38
78
4C
FC
C0
C0
CC
48
48
30
ENDCHAR
STARTCHAR 00EA
ENCODING 234
SWIDTH 270 0
DWIDTH 6 0
BBX 6 14 0 0
BITMAP
30
30
70
08
38
78
4C
FC
C0
C0
CC
48
48
30
ENDCHAR
STARTCHAR 00EB
ENCODING 235
SWIDTH 270 0
DWIDTH 6 0
BBX 6 13 0 0
BITMAP
F8
F8
00
38
78
4C
FC
C0
C0
CC
48
48
30
ENDCHAR
STARTCHAR 00EC
ENCODING 236
SWIDTH 135 0
DWIDTH 3 0
BBX 3 14 -1 0
BITMAP
C0
40
20
00
60
60
60
60
60
60
60
60
60
60
ENDCHAR
STARTCHAR 00ED
ENCODING 237
SWIDTH 135 0
DWIDTH 3 0
BBX 4 14 0 0
BITMAP
70
60
40
00
C0
C0
C0
C0
C0
C0
C0
C0
C0
C0
ENDCHAR
STARTCHAR 00EE
ENCODING 238
SWIDTH 135 0
DWIDTH 3 0
BBX 3 14 0 0
BITMAP
40
E0
A0
00
C0
C0
C0
C0
C0
C0
C0
C0
C0
C0
ENDCHAR
STARTCHAR 00EF
ENCODING 239
SWIDTH 135 0
DWIDTH 3 0
BBX 5 13 -1 0
BITMAP
D8
F8
00
60
60
60
60
60
60
60
60
60
60
ENDCHAR
STARTCHAR 00F0
ENCODING 240
SWIDTH 270 0
DWIDTH 6 0
BBX 6 15 0 0
BITMAP
30
1C
78
98
08
7C
4C
CC
CC
CC
CC
CC
CC
78
38
ENDCHAR
STARTCHAR 00F1
ENCODING 241
SWIDTH 315 0
DWIDTH 7 0
BBX 6 12 0 0
BITMAP
78
78
18
DC
EC
CC
CC
CC
CC
CC
CC
CC
ENDCHAR
STARTCHAR 00F2
ENCODING 242
SWIDTH 270 0
DWIDTH 6 0
BBX 6 14 0 0
BITMAP
60
20
20
00
30
78
48
4C
CC
CC
4C
48
78
30
ENDCHAR
STARTCHAR 00F3
ENCODING 243
SWIDTH 270 0
DWIDTH 6 0
BBX 6 14 0 0
BITMAP
18
10
10
00
30
78
48
4C
CC
CC
4C
48
78
30
ENDCHAR
STARTCHAR 00F4
ENCODING 244
SWIDTH 270 0
DWIDTH 6 0
BBX 6 14 0 0
BITMAP
30
30
38
40
30
78
48
4C
CC
CC
4C
48
78
30
ENDCHAR
STARTCHAR 00F5
ENCODING 245
SWIDTH 270 0
DWIDTH 6 0
BBX 6 12 0 0
BITMAP
78
78
30
78
48
4C
CC
CC
4C
48
78
30
ENDCHAR
STARTCHAR 00F6
ENCODING 246
SWIDTH 270 0
DWIDTH 6 0
BBX 6 13 0 0
BITMAP
7C
FC
00
30
78
48
4C
CC
CC
4C
48
78
30
ENDCHAR
STARTCHAR 00F7
ENCODING 247
SWIDTH 135 0
DWIDTH 3 0
BBX 5 7 -1 4
BITMAP
30
30
F8
F8
00
30
30
ENDCHAR
STARTCHAR 00F8
ENCODING 248
SWIDTH 270 0
DWIDTH 6 0
BBX 6 12 0 -1
BITMAP
0C
38
78
5C
5C
DC
FC
6C
68
78
70
40
ENDCHAR
STARTCHAR 00F9
ENCODING 249
SWIDTH 315 0
DWIDTH 7 0
BBX 6 14 0 0
BITMAP
60
20
10
00
CC
CC
CC
CC
CC
CC
CC
CC
7C
60
ENDCHAR
STARTCHAR 00FA
ENCODING 250
SWIDTH 315 0
DWIDTH 7 0
BBX 6 14 0 0
BITMAP
18
18
10
00
CC
CC
CC
CC
CC
CC
CC
CC
7C
60
ENDCHAR
STARTCHAR 00FB
ENCODING 251
SWIDTH 315 0
DWIDTH 7 0
BBX 6 14 0 0
BITMAP
30
30
38
00
CC
CC
CC
CC
CC
CC
CC
CC
7C
60
ENDCHAR
STARTCHAR 00FC
ENCODING 252
SWIDTH 315 0
DWIDTH 7 0
BBX 6 13 0 0
BITMAP
6C
7C
00
CC
CC
CC
CC
CC
CC
CC
CC
7C
60
ENDCHAR
STARTCHAR 00FD
ENCODING 253
SWIDTH 315 0
DWIDTH 7 0
BBX 6 18 0 -4
BITMAP
18
10
10
20
CC
CC
CC
CC
CC
CC
CC
CC
5C
7C
0C
0C
78
78
ENDCHAR
STARTCHAR 00FE
ENCODING 254
SWIDTH 315 0
DWIDTH 7 0
BBX 7 16 0 -3
BITMAP
C0
C0
C8
DC
EC
E4
E6
C6
C4
C4
C4
EC
D8
C0
C0
C0
ENDCHAR
STARTCHAR 00FF
ENCODING 255
SWIDTH 315 0
DWIDTH 7 0
BBX 6 17 0 -4
BITMAP
6C
7C
00
CC
CC
CC
CC
CC
CC
CC
CC
5C
7C
0C
0C
78
78
ENDCHAR
STARTCHAR 0110
ENCODING 272
SWIDTH 270 0
DWIDTH 6 0
BBX 6 15 0 0
BITMAP
70
58
4C
4C
44
44
F4
F4
44
44
4C
4C
58
78
70
ENDCHAR
STARTCHAR 0111
ENCODING 273
SWIDTH 315 0
DWIDTH 7 0
BBX 8 15 0 0
BITMAP
0C
04
1F
1F
04
34
6C
4C
CC
CC
CC
CC
CC
74
74
ENDCHAR
STARTCHAR 0131
ENCODING 305
SWIDTH 135 0
DWIDTH 3 0
BBX 2 10 0 0
BITMAP
C0
C0
C0
C0
C0
C0
C0
C0
C0
C0
ENDCHAR
STARTCHAR 0141
ENCODING 321
SWIDTH 225 0
DWIDTH 5 0
BBX 5 15 -1 0
BITMAP
60
60
60
60
60
70
78
60
E0
60
60
60
60
78
78
ENDCHAR
STARTCHAR 0142
ENCODING 322
SWIDTH 225 0
DWIDTH 5 0
BBX 5 15 0 0
BITMAP
20
20
20
20
20
30
38
70
E0
60
20
20
20
20
20
ENDCHAR
STARTCHAR 0152
ENCODING 338
SWIDTH 405 0
DWIDTH 9 0
BBX 9 15 0 0
BITMAP
3F80
7F80
4C00
CC00
CC00
CC00
CC00
CF00
CF00
CC00
CC00
CC00
4C00
7F80
3F80
ENDCHAR
STARTCHAR 0153
ENCODING 339
SWIDTH 450 0
DWIDTH 10 0
BBX 10 10 0 0
BITMAP
3380
7F80
4CC0
4FC0
CC00
CC00
4CC0
4CC0
6C80
3F80
ENDCHAR
STARTCHAR 0160
ENCODING 352
SWIDTH 225 0
DWIDTH 5 0
BBX 5 20 0 -1
BITMAP
50
60
20
00
30
70
C0
C0
C0
C0
40
60
60
30
10
10
18
30
F0
E0
ENDCHAR
STARTCHAR 0161
ENCODING 353
SWIDTH 225 0
DWIDTH 5 0
BBX 4 14 1 0
BITMAP
A0
E0
40
00
70
F0
80
80
40
60
30
30
F0
E0
ENDCHAR
STARTCHAR 0178
ENCODING 376
SWIDTH 315 0
DWIDTH 7 0
BBX 7 18 0 0
BITMAP
6C
6C
00
C6
44
6C
6C
6C
6C
28
28
38
38
38
10
10
10
10
ENDCHAR
STARTCHAR 017D
ENCODING 381
SWIDTH 270 0
DWIDTH 6 0
BBX 5 19 1 0
BITMAP
F0
60
60
00
F8
F0
30
30
30
20
60
60
60
40
40
C0
C0
F0
F0
ENDCHAR
STARTCHAR 017E
ENCODING 382
SWIDTH 315 0
DWIDTH 7 0
BBX 6 14 0 0
BITMAP
28
38
10
00
7C
7C
08
18
10
30
20
60
7C
FC
ENDCHAR
STARTCHAR 0192
ENCODING 402
SWIDTH 405 0
DWIDTH 9 0
BBX 8 19 0 -4
BITMAP
03
06
0C
0C
0C
1E
1E
08
08
18
18
18
18
18
10
10
30
70
E0
ENDCHAR
STARTCHAR 02C6
ENCODING 710
SWIDTH 180 0
DWIDTH 4 0
BBX 4 3 0 11
BITMAP
60
60
F0
ENDCHAR
STARTCHAR 02C7
ENCODING 711
SWIDTH 180 0
DWIDTH 4 0
BBX 4 3 0 11
BITMAP
F0
60
60
ENDCHAR
STARTCHAR 02D8
ENCODING 728
SWIDTH 225 0
DWIDTH 5 0
BBX 5 2 0 11
BITMAP
98
70
ENDCHAR
STARTCHAR 02D9
ENCODING 729
SWIDTH 135 0
DWIDTH 3 0
BBX 3 2 0 11
BITMAP
E0
E0
ENDCHAR
STARTCHAR 02DA
ENCODING 730
SWIDTH 180 0
DWIDTH 4 0
BBX 4 4 0 10
BITMAP
40
A0
B0
60
ENDCHAR
STARTCHAR 02DB
ENCODING 731
SWIDTH 90 0
DWIDTH 2 0
BBX 2 3 0 -2
BITMAP
80
80
C0
ENDCHAR
STARTCHAR 02DC
ENCODING 732
SWIDTH 180 0
DWIDTH 4 0
BBX 4 2 0 10
BITMAP
F0
F0
ENDCHAR
STARTCHAR 02DD
ENCODING 733
SWIDTH 135 0
DWIDTH 3 0
BBX 5 3 0 11
BITMAP
78
50
90
ENDCHAR
STARTCHAR 03BC
ENCODING 956
SWIDTH 315 0
DWIDTH 7 0
BBX 6 13 0 -3
BITMAP
CC
CC
CC
CC
CC
CC
CC
EC
EC
DC
C0
C0
C0
ENDCHAR
STARTCHAR 2013
ENCODING 8211
SWIDTH 225 0
DWIDTH 5 0
BBX 5 2 0 7
BITMAP
F8
F8
ENDCHAR
STARTCHAR 2014
ENCODING 8212
SWIDTH 495 0
DWIDTH 11 0
BBX 11 2 0 8
BITMAP
FFE0
FFE0
ENDCHAR
STARTCHAR 2018
ENCODING 8216
SWIDTH 135 0
DWIDTH 3 0
BBX 2 3 0 12
BITMAP
40
C0
C0
ENDCHAR
STARTCHAR 2019
ENCODING 8217
SWIDTH 135 0
DWIDTH 3 0
BBX 2 3 0 12
BITMAP
C0
C0
80
ENDCHAR
STARTCHAR 201A
ENCODING 8218
SWIDTH 135 0
DWIDTH 3 0
BBX 2 4 1 -4
BITMAP
80
C0
80
80
ENDCHAR
STARTCHAR 201C
ENCODING 8220
SWIDTH 270 0
DWIDTH 6 0
BBX 4 4 0 11
BITMAP
50
90
F0
D0
ENDCHAR
STARTCHAR 201D
ENCODING 8221
SWIDTH 270 0
DWIDTH 6 0
BBX 4 4 0 11
BITMAP
D0
F0
50
90
ENDCHAR
STARTCHAR 201E
ENCODING 8222
SWIDTH 270 0
DWIDTH 6 0
BBX 4 4 1 -4
BITMAP
B0
F0
90
A0
ENDCHAR
STARTCHAR 2020
ENCODING 8224
SWIDTH 270 0
DWIDTH 6 0
BBX 6 12 0 0
BITMAP
30
30
FC
FC
30
30
30
30
30
30
30
30
ENDCHAR
STARTCHAR 2021
ENCODING 8225
SWIDTH 270 0
DWIDTH 6 0
BBX 6 12 0 2
BITMAP
30
30
30
30
FC
FC
30
FC
FC
30
30
30
ENDCHAR
STARTCHAR 2022
ENCODING 8226
SWIDTH 180 0
DWIDTH 4 0
BBX 2 3 1 6
BITMAP
C0
C0
C0
ENDCHAR
STARTCHAR 2026
ENCODING 8230
SWIDTH 405 0
DWIDTH 9 0
BBX 8 2 0 0
BITMAP
4B
DB
ENDCHAR
STARTCHAR 2030
ENCODING 8240
SWIDTH 630 0
DWIDTH 14 0
BBX 14 15 0 0
BITMAP
6200
5200
5600
D600
D400
D598
579C
5FFC
6FFC
0BFC
0BFC
0BFC
0BFC
199C
1198
ENDCHAR
STARTCHAR 2039
ENCODING 8249
SWIDTH 180 0
DWIDTH 4 0
BBX 4 5 0 5
BITMAP
20
70
C0
60
30
ENDCHAR
STARTCHAR 203A
ENCODING 8250
SWIDTH 180 0
DWIDTH 4 0
BBX 4 5 0 5
BITMAP
40
E0
30
60
C0
ENDCHAR
STARTCHAR 2044
ENCODING 8260
SWIDTH 225 0
DWIDTH 5 0
BBX 4 15 0 0
BITMAP
10
10
10
30
30
20
20
20
60
60
40
40
40
40
C0
ENDCHAR
STARTCHAR 2074
ENCODING 8308
SWIDTH 225 0
DWIDTH 5 0
BBX 4 10 0 5
BITMAP
30
30
30
70
50
50
D0
F0
10
10
ENDCHAR
STARTCHAR 20AC
ENCODING 8364
SWIDTH 315 0
DWIDTH 7 0
BBX 7 15 0 0
BITMAP
1C
3C
36
26
26
F8
F8
60
F8
F8
20
26
36
3C
1C
ENDCHAR
STARTCHAR 2122
ENCODING 8482
SWIDTH 405 0
DWIDTH 9 0
BBX 8 7 0 8
BITMAP
E9
4B
4B
4B
4F
5D
5D
ENDCHAR
STARTCHAR 2212
ENCODING 8722
SWIDTH 270 0
DWIDTH 6 0
BBX 6 2 0 7
BITMAP
FC
FC
ENDCHAR
STARTCHAR FB01
ENCODING 64257
SWIDTH 315 0
DWIDTH 7 0
BBX 7 15 0 0
BITMAP
38
60
66
46
40
FE
FE
46
46
46
46
46
46
46
46
ENDCHAR
STARTCHAR FB02
ENCODING 64258
SWIDTH 315 0
DWIDTH 7 0
BBX 7 15 0 0
BITMAP
3E
7E
66
46
46
F6
F6
46
46
46
46
46
46
46
46
ENDCHAR
ENDFONT
